<svg width="501" height="70" viewBox="0 0 501 70" fill="none" xmlns="http://www.w3.org/2000/svg">
<path d="M102.784 17.0137H144.826V27.4997H131.155V51.9997H116.455V27.4997H102.784V17.0137Z" fill="white"/>
<path d="M185.92 39.1617L193.858 51.9997H177.639L171.955 42.1017H162.008V51.9997H147.308V17.0137H177.492C183.176 17.0137 187.194 18.0263 189.546 20.0517C191.898 22.0443 193.074 25.0497 193.074 29.0677C193.074 31.8443 192.47 33.984 191.261 35.4867C190.052 36.9893 188.272 38.051 185.92 38.6717V39.1617ZM172.984 33.5267C174.323 33.5267 175.271 33.298 175.826 32.8407C176.414 32.3507 176.708 31.5993 176.708 30.5867C176.708 29.5413 176.43 28.7737 175.875 28.2837C175.32 27.7937 174.356 27.5487 172.984 27.5487H162.008V33.5267H172.984Z" fill="white"/>
<path d="M246.207 51.9997H230.478L228.469 47.5897H210.927L208.918 51.9997H193.189L210.045 17.0137H229.351L246.207 51.9997ZM219.551 28.3817L214.994 38.4757H224.402L219.845 28.3817H219.551Z" fill="white"/>
<path d="M261.922 17.0137V51.9997H247.222V17.0137H261.922Z" fill="white"/>
<path d="M297.11 35.3397V17.0137H310.928V51.9997H294.219L279.47 33.4777H279.176V51.9997H265.358V17.0137H282.263L296.816 35.3397H297.11Z" fill="white"/>
<path d="M376.196 17.0137L366.494 51.9997H349.001L344.15 31.0277H343.856L339.005 51.9997H321.218L311.81 17.0137H326.657L331.116 38.2307H331.41L336.31 17.0137H351.696L356.645 38.2307H356.939L361.447 17.0137H376.196Z" fill="white"/>
<path d="M416.732 25.9317H391.791V30.3417H415.458V38.4267H391.791V43.2287H417.026V51.9997H377.091V17.0137H416.732V25.9317Z" fill="white"/>
<path d="M459.019 41.7097V51.9997H419.966V17.0137H434.666V41.7097H459.019Z" fill="white"/>
<path d="M500.698 41.7097V51.9997H461.645V17.0137H476.345V41.7097H500.698Z" fill="white"/>
<path fill-rule="evenodd" clip-rule="evenodd" d="M54.5036 21.9093V53.6401L70.3689 42.3077V11.3324L38.6382 0L23.5283 10.5769L54.5036 21.9093ZM31.0836 37.7746V69.5053L46.949 58.1729V27.1976L15.2183 15.8652L0.108398 26.4421L31.0836 37.7746Z" fill="#E7FF57"/>
</svg>
